HIERARCHY
ROOT  Hips
{
    OFFSET  0.000000  93.020000  0.000000
    CHANNELS  6  Xposition  Yposition  Zposition  Yrotation  Xrotation  Zrotation
    JOINT  RightUpLeg
    {
        OFFSET  -9.250000  -1.590000  0.000000
        CHANNELS  3  Yrotation  Xrotation  Zrotation
        JOINT  RightLeg
        {
            OFFSET  0.000000  -41.870000  0.000000
            CHANNELS  3  Yrotation  Xrotation  Zrotation
            JOINT  RightFoot
            {
                OFFSET  0.000000  -41.870000  0.000000
                CHANNELS  3  Yrotation  Xrotation  Zrotation
                End Site
                {
                    OFFSET  0.000000  -7.690000  17.500000
                }
            }
        }
    }
    JOINT  LeftUpLeg
    {
        OFFSET  9.250000  -1.590000  0.000000
        CHANNELS  3  Yrotation  Xrotation  Zrotation
        JOINT  LeftLeg
        {
            OFFSET  0.000000  -41.870000  0.000000
            CHANNELS  3  Yrotation  Xrotation  Zrotation
            JOINT  LeftFoot
            {
                OFFSET  0.000000  -41.870000  0.000000
                CHANNELS  3  Yrotation  Xrotation  Zrotation
                End Site
                {
                    OFFSET  0.000000  -7.690000  17.500000
                }
            }
        }
    }
    JOINT  Spine
    {
        OFFSET  0.000000  14.307000  0.000000
        CHANNELS  3  Yrotation  Xrotation  Zrotation
        JOINT  Spine1
        {
            OFFSET  0.000000  9.718000  0.000000
            CHANNELS  3  Yrotation  Xrotation  Zrotation
            JOINT  Spine2
            {
                OFFSET  0.000000  10.120000  0.000000
                CHANNELS  3  Yrotation  Xrotation  Zrotation
                JOINT  Spine3
                {
                    OFFSET  0.000000  9.718000  0.000000
                    CHANNELS  3  Yrotation  Xrotation  Zrotation
                    JOINT  Neck
                    {
                        OFFSET  0.000000  10.387000  0.000000
                        CHANNELS  3  Yrotation  Xrotation  Zrotation
                        JOINT  Head
                        {
                            OFFSET  0.000000  9.470000  0.000000
                            CHANNELS  3  Yrotation  Xrotation  Zrotation
                            End Site
                            {
                                OFFSET  0.000000  15.950000  0.000000
                            }
                        }
                    }
                    JOINT  RightShoulder
                    {
                        OFFSET  -3.200000  6.925000  0.000000
                        CHANNELS  3  Yrotation  Xrotation  Zrotation
                        JOINT  RightArm
                        {
                            OFFSET  -12.800000  0.000000  0.000000
                            CHANNELS  3  Yrotation  Xrotation  Zrotation
                            JOINT  RightForeArm
                            {
                                OFFSET  -26.500000  0.000000  0.000000
                                CHANNELS  3  Yrotation  Xrotation  Zrotation
                                JOINT  RightHand
                                {
                                    OFFSET  -26.000000  0.000000  0.000000
                                    CHANNELS  3  Yrotation  Xrotation  Zrotation
                                    JOINT  RightHandThumb1
                                    {
                                        OFFSET  -2.489000  0.190000  3.121000
                                        CHANNELS  3  Yrotation  Xrotation  Zrotation
                                        JOINT  RightHandThumb2
                                        {
                                            OFFSET  -3.683000  0.000000  0.000000
                                            CHANNELS  3  Yrotation  Xrotation  Zrotation
                                            JOINT  RightHandThumb3
                                            {
                                                OFFSET  -2.558000  0.000000  0.000000
                                                CHANNELS  3  Yrotation  Xrotation  Zrotation
                                                End Site
                                                {
                                                    OFFSET  -2.194000  0.000000  0.000000
                                                }
                                            }
                                        }
                                    }
                                    JOINT  RightInHandIndex
                                    {
                                        OFFSET  -3.224000  0.508000  1.978000
                                        CHANNELS  3  Yrotation  Xrotation  Zrotation
                                        JOINT  RightHandIndex1
                                        {
                                            OFFSET  -5.217000  -0.091000  0.999000
                                            CHANNELS  3  Yrotation  Xrotation  Zrotation
                                            JOINT  RightHandIndex2
                                            {
                                                OFFSET  -3.619000  0.000000  0.000000
                                                CHANNELS  3  Yrotation  Xrotation  Zrotation
                                                JOINT  RightHandIndex3
                                                {
                                                    OFFSET  -2.052000  0.000000  0.000000
                                                    CHANNELS  3  Yrotation  Xrotation  Zrotation
                                                    End Site
                                                    {
                                                        OFFSET  -1.805000  0.000000  0.000000
                                                    }
                                                }
                                            }
                                        }
                                    }
                                    JOINT  RightInHandMiddle
                                    {
                                        OFFSET  -3.382000  0.517000  0.757000
                                        CHANNELS  3  Yrotation  Xrotation  Zrotation
                                        JOINT  RightHandMiddle1
                                        {
                                            OFFSET  -5.174000  -0.084000  0.314000
                                            CHANNELS  3  Yrotation  Xrotation  Zrotation
                                            JOINT  RightHandMiddle2
                                            {
                                                OFFSET  -3.949000  0.000000  0.000000
                                                CHANNELS  3  Yrotation  Xrotation  Zrotation
                                                JOINT  RightHandMiddle3
                                                {
                                                    OFFSET  -2.476000  0.000000  0.000000
                                                    CHANNELS  3  Yrotation  Xrotation  Zrotation
                                                    End Site
                                                    {
                                                        OFFSET  -1.975000  0.000000  0.000000
                                                    }
                                                }
                                            }
                                        }
                                    }
                                    JOINT  RightInHandRing
                                    {
                                        OFFSET  -3.365000  0.538000  -0.129000
                                        CHANNELS  3  Yrotation  Xrotation  Zrotation
                                        JOINT  RightHandRing1
                                        {
                                            OFFSET  -4.635000  -0.022000  -0.479000
                                            CHANNELS  3  Yrotation  Xrotation  Zrotation
                                            JOINT  RightHandRing2
                                            {
                                                OFFSET  -3.442000  0.000000  0.000000
                                                CHANNELS  3  Yrotation  Xrotation  Zrotation
                                                JOINT  RightHandRing3
                                                {
                                                    OFFSET  -2.388000  0.000000  0.000000
                                                    CHANNELS  3  Yrotation  Xrotation  Zrotation
                                                    End Site
                                                    {
                                                        OFFSET  -1.857000  0.000000  0.000000
                                                    }
                                                }
                                            }
                                        }
                                    }
                                    JOINT  RightInHandPinky
                                    {
                                        OFFSET  -3.161000  0.469000  -1.202000
                                        CHANNELS  3  Yrotation  Xrotation  Zrotation
                                        JOINT  RightHandPinky1
                                        {
                                            OFFSET  -4.141000  -0.022000  -1.091000
                                            CHANNELS  3  Yrotation  Xrotation  Zrotation
                                            JOINT  RightHandPinky2
                                            {
                                                OFFSET  -2.757000  0.000000  0.000000
                                                CHANNELS  3  Yrotation  Xrotation  Zrotation
                                                JOINT  RightHandPinky3
                                                {
                                                    OFFSET  -1.742000  0.000000  0.000000
                                                    CHANNELS  3  Yrotation  Xrotation  Zrotation
                                                    End Site
                                                    {
                                                        OFFSET  -1.645000  0.000000  0.000000
                                                    }
                                                }
                                            }
                                        }
                                    }
                                }
                            }
                        }
                    }
                    JOINT  LeftShoulder
                    {
                        OFFSET  3.200000  6.925000  0.000000
                        CHANNELS  3  Yrotation  Xrotation  Zrotation
                        JOINT  LeftArm
                        {
                            OFFSET  12.800000  0.000000  0.000000
                            CHANNELS  3  Yrotation  Xrotation  Zrotation
                            JOINT  LeftForeArm
                            {
                                OFFSET  26.500000  0.000000  0.000000
                                CHANNELS  3  Yrotation  Xrotation  Zrotation
                                JOINT  LeftHand
                                {
                                    OFFSET  26.000000  0.000000  0.000000
                                    CHANNELS  3  Yrotation  Xrotation  Zrotation
                                    JOINT  LeftHandThumb1
                                    {
                                        OFFSET  2.489000  0.190000  3.121000
                                        CHANNELS  3  Yrotation  Xrotation  Zrotation
                                        JOINT  LeftHandThumb2
                                        {
                                            OFFSET  3.683000  0.000000  0.000000
                                            CHANNELS  3  Yrotation  Xrotation  Zrotation
                                            JOINT  LeftHandThumb3
                                            {
                                                OFFSET  2.558000  0.000000  0.000000
                                                CHANNELS  3  Yrotation  Xrotation  Zrotation
                                                End Site
                                                {
                                                    OFFSET  2.194000  0.000000  0.000000
                                                }
                                            }
                                        }
                                    }
                                    JOINT  LeftInHandIndex
                                    {
                                        OFFSET  3.224000  0.508000  1.978000
                                        CHANNELS  3  Yrotation  Xrotation  Zrotation
                                        JOINT  LeftHandIndex1
                                        {
                                            OFFSET  5.217000  -0.091000  0.999000
                                            CHANNELS  3  Yrotation  Xrotation  Zrotation
                                            JOINT  LeftHandIndex2
                                            {
                                                OFFSET  3.619000  0.000000  0.000000
                                                CHANNELS  3  Yrotation  Xrotation  Zrotation
                                                JOINT  LeftHandIndex3
                                                {
                                                    OFFSET  2.052000  0.000000  0.000000
                                                    CHANNELS  3  Yrotation  Xrotation  Zrotation
                                                    End Site
                                                    {
                                                        OFFSET  1.805000  0.000000  0.000000
                                                    }
                                                }
                                            }
                                        }
                                    }
                                    JOINT  LeftInHandMiddle
                                    {
                                        OFFSET  3.382000  0.517000  0.757000
                                        CHANNELS  3  Yrotation  Xrotation  Zrotation
                                        JOINT  LeftHandMiddle1
                                        {
                                            OFFSET  5.174000  -0.084000  0.314000
                                            CHANNELS  3  Yrotation  Xrotation  Zrotation
                                            JOINT  LeftHandMiddle2
                                            {
                                                OFFSET  3.949000  0.000000  0.000000
                                                CHANNELS  3  Yrotation  Xrotation  Zrotation
                                                JOINT  LeftHandMiddle3
                                                {
                                                    OFFSET  2.476000  0.000000  0.000000
                                                    CHANNELS  3  Yrotation  Xrotation  Zrotation
                                                    End Site
                                                    {
                                                        OFFSET  1.975000  0.000000  0.000000
                                                    }
                                                }
                                            }
                                        }
                                    }
                                    JOINT  LeftInHandRing
                                    {
                                        OFFSET  3.365000  0.538000  -0.129000
                                        CHANNELS  3  Yrotation  Xrotation  Zrotation
                                        JOINT  LeftHandRing1
                                        {
                                            OFFSET  4.635000  -0.022000  -0.479000
                                            CHANNELS  3  Yrotation  Xrotation  Zrotation
                                            JOINT  LeftHandRing2
                                            {
                                                OFFSET  3.442000  0.000000  0.000000
                                                CHANNELS  3  Yrotation  Xrotation  Zrotation
                                                JOINT  LeftHandRing3
                                                {
                                                    OFFSET  2.388000  0.000000  0.000000
                                                    CHANNELS  3  Yrotation  Xrotation  Zrotation
                                                    End Site
                                                    {
                                                        OFFSET  1.857000  0.000000  0.000000
                                                    }
                                                }
                                            }
                                        }
                                    }
                                    JOINT  LeftInHandPinky
                                    {
                                        OFFSET  3.161000  0.469000  -1.202000
                                        CHANNELS  3  Yrotation  Xrotation  Zrotation
                                        JOINT  LeftHandPinky1
                                        {
                                            OFFSET  4.141000  -0.022000  -1.091000
                                            CHANNELS  3  Yrotation  Xrotation  Zrotation
                                            JOINT  LeftHandPinky2
                                            {
                                                OFFSET  2.757000  0.000000  0.000000
                                                CHANNELS  3  Yrotation  Xrotation  Zrotation
                                                JOINT  LeftHandPinky3
                                                {
                                                    OFFSET  1.742000  0.000000  0.000000
                                                    CHANNELS  3  Yrotation  Xrotation  Zrotation
                                                    End Site
                                                    {
                                                        OFFSET  1.645000  0.000000  0.000000
                                                    }
                                                }
                                            }
                                        }
                                    }
                                }
                            }
                        }
                    }
                }
            }
        }
    }
}
MOTION
Frames: 3
Frame Time: 0.008000
-13.672304  85.477089  13.997740  19.773577  -7.041804  -2.189545  9.268602  -30.195607  -0.643052  0.000004  44.152441  0.000003  -5.441339  -6.365858  4.630784  3.031901  -4.200858  10.273622  0.000000  47.637686  0.000001  -7.580562  -36.049343  0.345516  -9.810690  9.972627  -1.833677  -2.450640  2.477157  -0.294453  -4.071050  4.026368  -0.544332  -0.483012  0.013693  0.313507  -0.483793  0.016491  0.313866  -8.666602  1.157156  5.601890  0.515870  4.561262  7.211897  26.132772  -36.004471  55.121144  82.868115  -7.227183  10.292931  27.330291  15.926799  -9.429063  21.860003  -0.000000  30.000000  -10.000000  -0.000000  -0.000000  -10.000000  -0.000000  -0.000000  0.000000  -0.000000  0.000000  2.550000  -0.000000  20.000000  0.000000  -0.000000  24.000000  0.000000  -0.000000  20.000000  0.000000  -0.000000  0.000000  0.000000  -0.000000  20.000000  0.000000  -0.000000  24.000000  0.000000  -0.000000  20.000000  0.000000  -0.000000  0.000000  -3.000000  -0.000000  19.999997  0.000000  -0.000000  24.000000  0.000000  -0.000000  20.000000  0.000000  -0.000000  0.000000  -8.830001  -0.000000  20.000001  0.000000  -0.000000  24.000000  0.000000  -0.000000  20.000000  3.324870  1.615240  2.026071  -29.755432  -39.488785  -46.434635  -91.360416  -20.432147  -15.994623  -9.410641  15.072205  15.473914  -21.860003  -0.000000  -30.000000  10.000000  -0.000000  0.000000  10.000000  -0.000000  0.000000  0.000000  -0.000000  0.000000  -2.550000  -0.000000  -20.000000  0.000000  -0.000000  -24.000000  0.000000  -0.000000  -20.000000  0.000000  -0.000000  0.000000  0.000000  -0.000000  -20.000000  0.000000  -0.000000  -24.000000  0.000000  -0.000000  -20.000000  0.000000  -0.000000  0.000000  3.000000  -0.000000  -19.999997  0.000000  -0.000000  -24.000000  0.000000  -0.000000  -20.000000  0.000000  -0.000000  0.000000  8.830001  -0.000000  -20.000001  0.000000  -0.000000  -24.000000  0.000000  -0.000000  -20.000000
-13.695288  85.463280  13.968027  19.712250  -7.029721  -2.164773  9.399650  -30.250258  -0.671366  0.000000  44.164040  0.000001  -5.527575  -6.306870  4.628908  3.007439  -4.240704  10.238728  0.000000  47.683550  0.000000  -7.527913  -36.081287  0.306301  -9.783441  9.984063  -1.801237  -2.443517  2.480460  -0.286677  -4.058730  4.032898  -0.531416  -0.482327  0.013107  0.310194  -0.483104  0.015871  0.310547  -8.656389  1.135793  5.543134  0.472683  4.557698  7.162147  25.918697  -35.921120  55.229820  82.938435  -7.360054  10.330943  27.222980  15.981128  -9.532145  21.860003  -0.000000  30.000000  -10.000000  -0.000000  -0.000000  -10.000000  -0.000000  -0.000000  0.000000  -0.000000  0.000000  2.550000  -0.000000  20.000000  0.000000  -0.000000  24.000000  0.000000  -0.000000  20.000000  0.000000  -0.000000  0.000000  0.000000  -0.000000  20.000000  0.000000  -0.000000  24.000000  0.000000  -0.000000  20.000000  0.000000  -0.000000  0.000000  -3.000000  -0.000000  19.999997  0.000000  -0.000000  24.000000  0.000000  -0.000000  20.000000  0.000000  -0.000000  0.000000  -8.830001  -0.000000  20.000001  0.000000  -0.000000  24.000000  0.000000  -0.000000  20.000000  3.296083  1.604290  2.007461  -29.670711  -39.584369  -46.454782  -91.462015  -20.471581  -16.011246  -9.358053  15.117988  15.473843  -21.860003  -0.000000  -30.000000  10.000000  -0.000000  0.000000  10.000000  -0.000000  0.000000  0.000000  -0.000000  0.000000  -2.550000  -0.000000  -20.000000  0.000000  -0.000000  -24.000000  0.000000  -0.000000  -20.000000  0.000000  -0.000000  0.000000  0.000000  -0.000000  -20.000000  0.000000  -0.000000  -24.000000  0.000000  -0.000000  -20.000000  0.000000  -0.000000  0.000000  3.000000  -0.000000  -19.999997  0.000000  -0.000000  -24.000000  0.000000  -0.000000  -20.000000  0.000000  -0.000000  0.000000  8.830001  -0.000000  -20.000001  0.000000  -0.000000  -24.000000  0.000000  -0.000000  -20.000000
-13.717961  85.447601  13.936991  19.718143  -7.040881  -2.185581  9.443423  -30.271649  -0.648225  -0.000001  44.170004  -0.000001  -5.559070  -6.280922  4.613373  2.913169  -4.287559  10.244595  -0.000004  47.775693  -0.000001  -7.407088  -36.109140  0.249185  -9.796290  10.017894  -1.782026  -2.446395  2.489193  -0.281140  -4.062816  4.047566  -0.522518  -0.481114  0.014676  0.309675  -0.481877  0.017434  0.310025  -8.631873  1.160162  5.532039  0.468658  4.571956  7.146290  25.763386  -35.867027  55.376702  83.006860  -7.387623  10.328198  27.226074  16.004788  -9.660214  21.860003  -0.000000  30.000000  -10.000000  -0.000000  -0.000000  -10.000000  -0.000000  -0.000000  0.000000  -0.000000  0.000000  2.550000  -0.000000  20.000000  0.000000  -0.000000  24.000000  0.000000  -0.000000  20.000000  0.000000  -0.000000  0.000000  0.000000  -0.000000  20.000000  0.000000  -0.000000  24.000000  0.000000  -0.000000  20.000000  0.000000  -0.000000  0.000000  -3.000000  -0.000000  19.999997  0.000000  -0.000000  24.000000  0.000000  -0.000000  20.000000  0.000000  -0.000000  0.000000  -8.830001  -0.000000  20.000001  0.000000  -0.000000  24.000000  0.000000  -0.000000  20.000000  3.299530  1.620391  2.012862  -29.626881  -39.701941  -46.438244  -91.533588  -20.490007  -16.014799  -9.340220  15.106663  15.448689  -21.860003  -0.000000  -30.000000  10.000000  -0.000000  0.000000  10.000000  -0.000000  0.000000  0.000000  -0.000000  0.000000  -2.550000  -0.000000  -20.000000  0.000000  -0.000000  -24.000000  0.000000  -0.000000  -20.000000  0.000000  -0.000000  0.000000  0.000000  -0.000000  -20.000000  0.000000  -0.000000  -24.000000  0.000000  -0.000000  -20.000000  0.000000  -0.000000  0.000000  3.000000  -0.000000  -19.999997  0.000000  -0.000000  -24.000000  0.000000  -0.000000  -20.000000  0.000000  -0.000000  0.000000  8.830001  -0.000000  -20.000001  0.000000  -0.000000  -24.000000  0.000000  -0.000000  -20.000000
